<svg xmlns="http://www.w3.org/2000/svg" viewBox="0 0 310 72" role="img" aria-label="SciFlow Pro wordmark">
  <rect width="72" height="72" rx="18" fill="#0B1220"/>
  <path d="M50.25 18c-7.5-6-22.5-6-30 1.5-7.5 7.5-2.25 15 12.75 15h6c14.25 0 19.5 9 12 17.25-7.5 7.5-23.25 7.5-31.5.75" fill="none" stroke="#22D3C5" stroke-width="5.7" stroke-linecap="round"/>
  <path d="M21.75 34.5h27" stroke="#2F65D9" stroke-width="5.7" stroke-linecap="round"/>
  <path d="M21 51.75c7.5 6 22.5 6 30-0.75" fill="none" stroke="#9FE870" stroke-width="5.7" stroke-linecap="round"/>
  <circle cx="20.25" cy="20.25" r="3.6" fill="#D7FFF2"/>
  <circle cx="51" cy="18" r="3.6" fill="#D7FFF2"/>
  <circle cx="21" cy="51.75" r="3.6" fill="#D7FFF2"/>
  <circle cx="51" cy="51" r="3.6" fill="#D7FFF2"/>
  <path d="M36 15v42" stroke="#FFFFFF" stroke-opacity=".13" stroke-width="2.25" stroke-linecap="round"/>
  <text x="88" y="40" fill="#0B1220" font-family="-apple-system,BlinkMacSystemFont,'Segoe UI',Arial,sans-serif" font-size="28" font-weight="800">SciFlow</text>
  <text x="200" y="40" fill="#2F65D9" font-family="-apple-system,BlinkMacSystemFont,'Segoe UI',Arial,sans-serif" font-size="28" font-weight="800">Pro</text>
  <text x="90" y="59" fill="#64748B" font-family="-apple-system,BlinkMacSystemFont,'Segoe UI',Arial,sans-serif" font-size="12" font-weight="700">local-first scientific workflow</text>
</svg>
